<svg width="20" height="20" viewBox="0 0 20 20" fill="none" xmlns="http://www.w3.org/2000/svg">
<path d="M1.66833 10.0017C1.6688 11.9861 2.37706 13.9053 3.6658 15.4143C4.95455 16.9233 6.73926 17.9232 8.69917 18.2342V12.41H6.585V10.0017H8.70167V8.16833C8.65493 7.73924 8.70325 7.30512 8.84319 6.8968C8.98312 6.48849 9.21125 6.11599 9.51137 5.80577C9.81148 5.49555 10.1762 5.25522 10.5797 5.10185C10.9831 4.94847 11.4154 4.88582 11.8458 4.91833C12.4708 4.92833 13.0958 4.98416 13.7125 5.085V7.13416H12.6592C12.4801 7.11071 12.2981 7.1278 12.1266 7.18415C11.9551 7.2405 11.7984 7.33467 11.6681 7.45972C11.5379 7.58476 11.4374 7.73748 11.3741 7.90658C11.3108 8.07567 11.2864 8.25683 11.3025 8.43666V10.0017H13.6117L13.2425 12.4108H11.3025V18.2342C12.8755 17.9856 14.3444 17.2914 15.5351 16.234C16.7259 15.1765 17.5887 13.8 18.0215 12.2673C18.4542 10.7347 18.4387 9.1102 17.9768 7.58611C17.5149 6.06202 16.626 4.70219 15.4153 3.66762C14.2046 2.63304 12.7228 1.96705 11.1453 1.7485C9.56783 1.52995 7.96077 1.76798 6.51438 2.43442C5.06799 3.10085 3.84285 4.16779 2.98401 5.50889C2.12516 6.85 1.66859 8.40912 1.66833 10.0017V10.0017Z" fill="#67000C"/>
</svg>
