<svg width="20" height="20" viewBox="0 0 20 20" fill="none" xmlns="http://www.w3.org/2000/svg">
<path d="M17.207 8.64062H10.1504V11.541H14.1816C14.0078 12.4785 13.4805 13.2715 12.6855 13.8027C12.0137 14.252 11.1562 14.5176 10.1484 14.5176C8.19726 14.5176 6.54687 13.1992 5.95703 11.4277C5.80859 10.9785 5.72266 10.498 5.72266 10.0039C5.72266 9.50977 5.80859 9.0293 5.95703 8.58008C6.54883 6.81055 8.19922 5.49219 10.1504 5.49219C11.25 5.49219 12.2363 5.87109 13.0137 6.61328L15.1621 4.46289C13.8633 3.25195 12.1699 2.50977 10.1504 2.50977C7.22266 2.50977 4.68945 4.18945 3.45703 6.63867C2.94922 7.65039 2.66016 8.79492 2.66016 10.0059C2.66016 11.2168 2.94922 12.3594 3.45703 13.3711C4.68945 15.8203 7.22266 17.5 10.1504 17.5C12.1738 17.5 13.8691 16.8281 15.1074 15.6836C16.5234 14.3789 17.3418 12.457 17.3418 10.1738C17.3418 9.64258 17.2949 9.13281 17.207 8.64062Z" fill="#67000C"/>
</svg>
