<svg width="20" height="20" viewBox="0 0 20 20" fill="none"
  xmlns="http://www.w3.org/2000/svg">
  <path d="M10 1.66666C12.2642 1.66666 12.5467 1.675 13.435 1.71666C14.3225 1.75833 14.9267 1.8975 15.4583 2.10416C16.0083 2.31583 16.4717 2.6025 16.935 3.065C17.3588 3.48158 17.6866 3.98549 17.8958 4.54166C18.1017 5.0725 18.2417 5.6775 18.2833 6.565C18.3225 7.45333 18.3333 7.73583 18.3333 10C18.3333 12.2642 18.325 12.5467 18.2833 13.435C18.2417 14.3225 18.1017 14.9267 17.8958 15.4583C17.6872 16.0148 17.3593 16.5188 16.935 16.935C16.5183 17.3586 16.0144 17.6865 15.4583 17.8958C14.9275 18.1017 14.3225 18.2417 13.435 18.2833C12.5467 18.3225 12.2642 18.3333 10 18.3333C7.73584 18.3333 7.45334 18.325 6.56501 18.2833C5.67751 18.2417 5.07334 18.1017 4.54167 17.8958C3.98528 17.6871 3.48128 17.3591 3.06501 16.935C2.64118 16.5185 2.31328 16.0146 2.10417 15.4583C1.89751 14.9275 1.75834 14.3225 1.71667 13.435C1.67751 12.5467 1.66667 12.2642 1.66667 10C1.66667 7.73583 1.67501 7.45333 1.71667 6.565C1.75834 5.67666 1.89751 5.07333 2.10417 4.54166C2.3127 3.98515 2.64067 3.4811 3.06501 3.065C3.4814 2.64102 3.98536 2.31311 4.54167 2.10416C5.07334 1.8975 5.67667 1.75833 6.56501 1.71666C7.45334 1.6775 7.73584 1.66666 10 1.66666ZM10 5.83333C8.89494 5.83333 7.83513 6.27232 7.05373 7.05372C6.27233 7.83512 5.83334 8.89493 5.83334 10C5.83334 11.1051 6.27233 12.1649 7.05373 12.9463C7.83513 13.7277 8.89494 14.1667 10 14.1667C11.1051 14.1667 12.1649 13.7277 12.9463 12.9463C13.7277 12.1649 14.1667 11.1051 14.1667 10C14.1667 8.89493 13.7277 7.83512 12.9463 7.05372C12.1649 6.27232 11.1051 5.83333 10 5.83333V5.83333ZM15.4167 5.625C15.4167 5.34873 15.3069 5.08378 15.1116 4.88843C14.9162 4.69308 14.6513 4.58333 14.375 4.58333C14.0987 4.58333 13.8338 4.69308 13.6384 4.88843C13.4431 5.08378 13.3333 5.34873 13.3333 5.625C13.3333 5.90126 13.4431 6.16622 13.6384 6.36157C13.8338 6.55692 14.0987 6.66666 14.375 6.66666C14.6513 6.66666 14.9162 6.55692 15.1116 6.36157C15.3069 6.16622 15.4167 5.90126 15.4167 5.625ZM10 7.5C10.663 7.5 11.2989 7.76339 11.7678 8.23223C12.2366 8.70107 12.5 9.33696 12.5 10C12.5 10.663 12.2366 11.2989 11.7678 11.7678C11.2989 12.2366 10.663 12.5 10 12.5C9.33696 12.5 8.70108 12.2366 8.23224 11.7678C7.7634 11.2989 7.50001 10.663 7.50001 10C7.50001 9.33696 7.7634 8.70107 8.23224 8.23223C8.70108 7.76339 9.33696 7.5 10 7.5V7.5Z" fill="black"/>
</svg>
