<svg width="24" height="24" viewBox="0 0 24 24" fill="none"
  xmlns="http://www.w3.org/2000/svg">
  <path d="M8.7582 14.4345L6.36662 16.8928M5 18.2976L6.36662 16.8928L5 18.2976ZM11.5666 11.5476C11.9147 11.9103 12.3292 12.1986 12.7862 12.3959C13.2431 12.5933 13.7336 12.6958 14.2292 12.6975C14.7249 12.6992 15.2159 12.6001 15.6742 12.4059C16.1324 12.2117 16.5488 11.9263 16.8992 11.566C17.2497 11.2057 17.5274 10.7778 17.7163 10.3067C17.9052 9.83568 18.0016 9.33088 18 8.82139C17.9983 8.3119 17.8986 7.80778 17.7067 7.33805C17.5147 6.86833 17.2342 6.44228 16.8814 6.08443C16.1726 5.38073 15.2232 4.99134 14.2379 5.00015C13.2525 5.00895 12.3099 5.41523 11.6131 6.13149C10.9163 6.84775 10.521 7.81668 10.5125 8.82958C10.5039 9.84249 10.8827 10.8183 11.5673 11.5469L11.5666 11.5476ZM11.5666 11.5476L8.7582 14.4345L11.5666 11.5476ZM8.7582 14.4345L10.8081 16.5416L8.41655 19L6.36662 16.8928L8.7582 14.4345Z" stroke="#67000C" stroke-linecap="round" stroke-linejoin="round"/>
</svg>
