<svg width="18" height="18" viewBox="0 0 18 18" fill="none"
  xmlns="http://www.w3.org/2000/svg">
  <path d="M15 7.54545C15 12.6364 9 17 9 17C9 17 3 12.6364 3 7.54545C3 5.80949 3.63214 4.14463 4.75736 2.91712C5.88258 1.68961 7.4087 1 9 1C10.5913 1 12.1174 1.68961 13.2426 2.91712C14.3679 4.14463 15 5.80949 15 7.54545Z" stroke="#67000C" stroke-linecap="round" stroke-linejoin="round"/>
  <path d="M9 9.75C10.2426 9.75 11.25 8.74264 11.25 7.5C11.25 6.25736 10.2426 5.25 9 5.25C7.75736 5.25 6.75 6.25736 6.75 7.5C6.75 8.74264 7.75736 9.75 9 9.75Z" stroke="#67000C" stroke-linecap="round" stroke-linejoin="round"/>
</svg>
