<svg width="40" height="40" viewBox="0 0 40 40" fill="none"
  xmlns="http://www.w3.org/2000/svg">
  <path fill-rule="evenodd" clip-rule="evenodd" d="M20 0C19.211 0 18.5714 0.639593 18.5714 1.42857V18.5714H1.42857C0.639593 18.5714 0 19.211 0 20C0 20.789 0.639593 21.4286 1.42857 21.4286H18.5714V38.5714C18.5714 39.3604 19.211 40 20 40C20.789 40 21.4286 39.3604 21.4286 38.5714V21.4286H38.5714C39.3604 21.4286 40 20.789 40 20C40 19.211 39.3604 18.5714 38.5714 18.5714H21.4286V1.42857C21.4286 0.639593 20.789 0 20 0Z" fill="#C4C4C4"/>
</svg>
