<svg width="25" height="25" viewBox="0 0 25 25" fill="none"
  xmlns="http://www.w3.org/2000/svg">
  <path d="M18.2564 8.21397C19.9133 8.21397 21.2564 6.87083 21.2564 5.21397C21.2564 3.55712 19.9133 2.21397 18.2564 2.21397C16.5996 2.21397 15.2564 3.55712 15.2564 5.21397C15.2564 6.87083 16.5996 8.21397 18.2564 8.21397Z" stroke="#67000C" stroke-width="2" stroke-linecap="round" stroke-linejoin="round"/>
  <path d="M6.25641 15.214C7.91326 15.214 9.25641 13.8708 9.25641 12.214C9.25641 10.5571 7.91326 9.21399 6.25641 9.21399C4.59955 9.21399 3.25641 10.5571 3.25641 12.214C3.25641 13.8708 4.59955 15.214 6.25641 15.214Z" stroke="#67000C" stroke-width="2" stroke-linecap="round" stroke-linejoin="round"/>
  <path d="M18.2564 22.214C19.9133 22.214 21.2564 20.8708 21.2564 19.214C21.2564 17.5571 19.9133 16.214 18.2564 16.214C16.5996 16.214 15.2564 17.5571 15.2564 19.214C15.2564 20.8708 16.5996 22.214 18.2564 22.214Z" stroke="#67000C" stroke-width="2" stroke-linecap="round" stroke-linejoin="round"/>
  <path d="M8.84641 13.724L15.6764 17.704" stroke="#67000C" stroke-width="2" stroke-linecap="round" stroke-linejoin="round"/>
  <path d="M15.6664 6.72397L8.84641 10.704" stroke="#67000C" stroke-width="2" stroke-linecap="round" stroke-linejoin="round"/>
</svg>
